<svg width="24" height="24" viewBox="0 0 24 24" fill="none" xmlns="http://www.w3.org/2000/svg">
<path d="M16.5 12C16.5 13.1935 16.0259 14.3381 15.182 15.182C14.3381 16.0259 13.1935 16.5 12 16.5C10.8065 16.5 9.66194 16.0259 8.81802 15.182C7.97411 14.3381 7.5 13.1935 7.5 12C7.5 10.8065 7.97411 9.66193 8.81802 8.81802C9.66194 7.9741 10.8065 7.5 12 7.5C13.1935 7.5 14.3381 7.9741 15.182 8.81802C16.0259 9.66193 16.5 10.8065 16.5 12ZM16.5 12C16.5 13.657 17.507 15 18.75 15C19.993 15 21 13.657 21 12C21 9.9178 20.278 7.90003 18.957 6.29048C17.6361 4.68093 15.7979 3.57919 13.7557 3.17299C11.7136 2.76679 9.5937 3.08126 7.75737 4.06282C5.92104 5.04437 4.48187 6.63228 3.68506 8.55599C2.88825 10.4797 2.78311 12.6202 3.38756 14.6127C3.992 16.6052 5.26863 18.3265 6.99992 19.4833C8.73121 20.6401 10.81 21.1608 12.8822 20.9567C14.9544 20.7526 16.8917 19.8363 18.364 18.364M16.5 12V8.25" stroke="#F5F5F5" stroke-width="1.5" stroke-linecap="round"/>
</svg>
