<svg width="24" height="24" viewBox="0 0 24 24" fill="none" xmlns="http://www.w3.org/2000/svg">
<path d="M7.86398 4.24301C8.99437 3.49573 10.3061 3.06867 11.6598 3.0072C13.0135 2.94574 14.3585 3.25217 15.552 3.89393C16.7454 4.53569 17.7427 5.4888 18.4379 6.65198C19.133 7.81515 19.5001 9.14493 19.5 10.5C19.5 13.42 18.944 16.209 17.932 18.768M5.74198 6.36401C4.92953 7.5902 4.49745 9.02909 4.49998 10.5C4.50233 11.913 4.10354 13.2977 3.34998 14.493M5.33898 18.052C7.216 15.9851 8.25406 13.292 8.24998 10.5C8.24998 9.50544 8.64506 8.55162 9.34833 7.84836C10.0516 7.14509 11.0054 6.75001 12 6.75001C12.9945 6.75001 13.9484 7.14509 14.6516 7.84836C15.3549 8.55162 15.75 9.50544 15.75 10.5C15.75 11.027 15.729 11.549 15.686 12.065M12 10.5C12.0056 14.0761 10.7282 17.5356 8.39998 20.25M15.033 15.654C14.4915 17.5508 13.6527 19.3498 12.548 20.984" stroke="#F5F5F5" stroke-width="1.5" stroke-linecap="round" stroke-linejoin="round"/>
</svg>
