<svg width="24" height="24" viewBox="0 0 24 24" fill="none" xmlns="http://www.w3.org/2000/svg">
<path d="M12 6.75V8.25C10.645 8.25 9.303 8.306 7.976 8.416C6.845 8.51 6 9.473 6 10.608V13.121M12 8.251C13.355 8.251 14.697 8.306 16.024 8.416C17.155 8.51 18 9.473 18 10.608V13.121M15 8.251V6.751M9 8.251V6.751M21 16.501L19.5 17.251C19.0343 17.4839 18.5207 17.6051 18 17.6051C17.4793 17.6051 16.9657 17.4839 16.5 17.251C16.0343 17.0181 15.5207 16.8969 15 16.8969C14.4793 16.8969 13.9657 17.0181 13.5 17.251C13.0343 17.4839 12.5207 17.6051 12 17.6051C11.4793 17.6051 10.9657 17.4839 10.5 17.251C10.0343 17.0181 9.52071 16.8969 9 16.8969C8.47929 16.8969 7.96573 17.0181 7.5 17.251C7.03427 17.4839 6.52071 17.6051 6 17.6051C5.47929 17.6051 4.96573 17.4839 4.5 17.251L3 16.5M18 13.12C16.0096 12.8727 14.0057 12.7491 12 12.75C9.968 12.75 7.966 12.875 6 13.12C5.61169 13.1689 5.22399 13.2226 4.837 13.281C3.768 13.441 3 14.375 3 15.455V20.625C3.00027 20.9232 3.11891 21.2091 3.32986 21.4199C3.54081 21.6306 3.8268 21.749 4.125 21.749H19.875C20.496 21.749 21 21.245 21 20.625V15.455C21 14.374 20.233 13.44 19.163 13.28C18.777 13.222 18.39 13.169 18 13.12ZM12.265 3.11C12.3175 3.16243 12.3533 3.22925 12.3678 3.302C12.3823 3.37476 12.3749 3.45018 12.3465 3.51873C12.3181 3.58728 12.2701 3.64587 12.2084 3.6871C12.1467 3.72833 12.0742 3.75033 12 3.75033C11.9258 3.75033 11.8533 3.72833 11.7916 3.6871C11.7299 3.64587 11.6819 3.58728 11.6535 3.51873C11.6251 3.45018 11.6177 3.37476 11.6322 3.302C11.6467 3.22925 11.6825 3.16243 11.735 3.11L12 2.845L12.265 3.11ZM9.265 3.11C9.31749 3.16243 9.35325 3.22925 9.36776 3.302C9.38227 3.37476 9.37487 3.45018 9.3465 3.51873C9.31813 3.58728 9.27007 3.64587 9.20839 3.6871C9.14671 3.72833 9.07419 3.75033 9 3.75033C8.92581 3.75033 8.85329 3.72833 8.79161 3.6871C8.72993 3.64587 8.68187 3.58728 8.6535 3.51873C8.62513 3.45018 8.61773 3.37476 8.63224 3.302C8.64675 3.22925 8.68251 3.16243 8.735 3.11L9 2.845L9.265 3.11ZM15.265 3.11C15.3175 3.16243 15.3533 3.22925 15.3678 3.302C15.3823 3.37476 15.3749 3.45018 15.3465 3.51873C15.3181 3.58728 15.2701 3.64587 15.2084 3.6871C15.1467 3.72833 15.0742 3.75033 15 3.75033C14.9258 3.75033 14.8533 3.72833 14.7916 3.6871C14.7299 3.64587 14.6819 3.58728 14.6535 3.51873C14.6251 3.45018 14.6177 3.37476 14.6322 3.302C14.6467 3.22925 14.6825 3.16243 14.735 3.11L15 2.845L15.265 3.11Z" stroke="#F5F5F5" stroke-width="1.5" stroke-linecap="round" stroke-linejoin="round"/>
</svg>
